<svg 
 xmlns="http://www.w3.org/2000/svg"
 xmlns:xlink="http://www.w3.org/1999/xlink"
 width="206px" height="35px">
<defs>
<linearGradient id="PSgrad_0" x1="0%" x2="0%" y1="100%" y2="0%">
  <stop offset="0%" stop-color="rgb(20,199,172)" stop-opacity="1" />
  <stop offset="100%" stop-color="rgb(13,214,232)" stop-opacity="1" />
</linearGradient>
<linearGradient id="PSgrad_1" x1="81.915%" x2="0%" y1="57.358%" y2="0%">
  <stop offset="0%" stop-color="rgb(20,199,172)" stop-opacity="0.94" />
  <stop offset="100%" stop-color="rgb(13,214,232)" stop-opacity="0.94" />
</linearGradient>

</defs>
<path fill-rule="evenodd"  fill="rgb(255, 255, 255)"
 d="M28.011,34.998 L8.754,34.998 L7.003,34.998 L0.000,34.998 L0.000,27.998 L0.000,26.948 L0.000,7.000 C0.000,3.134 3.135,0.001 7.003,0.001 L26.261,0.001 L28.011,0.001 L35.014,0.001 L35.014,7.000 L35.014,8.050 L35.014,27.998 C35.014,31.864 31.879,34.998 28.011,34.998 Z"/>
<path fill="url(#PSgrad_0)"
 d="M28.011,34.998 L8.754,34.998 L7.003,34.998 L0.000,34.998 L0.000,27.998 L0.000,26.948 L0.000,7.000 C0.000,3.134 3.135,0.001 7.003,0.001 L26.261,0.001 L28.011,0.001 L35.014,0.001 L35.014,7.000 L35.014,8.050 L35.014,27.998 C35.014,31.864 31.879,34.998 28.011,34.998 Z"/>
<path fill-rule="evenodd"  opacity="0.102" fill="rgb(255, 255, 255)"
 d="M28.106,18.933 L19.720,18.933 L19.720,27.765 C19.720,28.601 19.085,29.278 18.302,29.278 L16.174,29.278 C15.390,29.278 14.755,28.601 14.755,27.765 L14.755,18.933 L5.749,18.933 C4.897,18.933 4.207,18.388 4.207,17.716 L4.207,15.890 C4.207,15.218 4.897,14.673 5.749,14.673 L14.755,14.673 L14.755,5.841 C14.755,5.006 15.390,4.329 16.174,4.329 L18.302,4.329 C19.085,4.329 19.720,5.006 19.720,5.841 L19.720,14.673 L28.106,14.673 C28.958,14.673 29.648,15.218 29.648,15.890 L29.648,17.716 C29.648,18.388 28.958,18.933 28.106,18.933 Z"/>
<path fill-rule="evenodd"  fill="rgb(255, 255, 255)"
 d="M28.222,25.840 L20.755,25.840 L20.755,24.556 L21.687,24.556 C22.476,24.556 22.649,24.010 22.649,23.799 L22.649,12.291 C22.649,11.730 22.317,11.445 21.664,11.445 L20.802,11.445 L20.802,10.316 L26.976,10.316 L26.976,11.445 L25.783,11.445 C25.340,11.445 24.869,11.710 24.869,12.202 L24.869,23.666 C24.869,24.032 24.869,24.379 27.583,24.379 C28.878,24.379 30.794,23.799 30.794,22.555 C30.794,22.199 30.735,22.079 30.734,22.078 L30.586,21.870 L30.815,21.749 C30.980,21.647 31.438,21.624 31.584,21.624 C32.386,21.624 33.014,22.257 33.014,23.066 C33.014,24.907 31.402,25.840 28.222,25.840 ZM12.097,25.996 C9.987,25.996 8.726,25.408 8.726,24.420 C8.726,23.561 9.584,23.334 10.037,23.334 L10.219,23.334 L10.273,23.506 C10.284,23.539 10.599,24.401 12.334,24.401 C15.485,24.401 16.895,21.152 16.895,17.934 C16.895,17.285 16.734,11.600 11.150,11.600 C9.820,11.600 8.797,11.737 8.105,12.007 L8.105,22.955 C8.105,24.789 7.212,25.840 5.657,25.840 L4.014,25.840 L4.014,24.689 L4.781,24.689 C5.542,24.689 5.885,23.999 5.885,23.510 L5.885,12.424 C5.885,11.738 5.626,11.445 5.017,11.445 L4.014,11.445 L4.014,10.316 L6.533,10.316 C7.300,10.316 8.052,10.243 8.848,10.166 C9.664,10.087 10.507,10.005 11.387,10.005 C18.711,10.005 19.281,16.074 19.281,17.934 C19.281,20.722 17.780,25.996 12.097,25.996 Z"/>
<path fill-rule="evenodd"  fill="rgb(255, 255, 255)"
 d="M199.117,32.044 C196.841,32.044 195.016,31.444 193.365,29.818 L194.766,28.218 C195.991,29.543 197.316,30.243 199.117,30.243 C202.617,30.243 203.543,27.993 203.543,25.517 L203.543,24.017 L203.493,24.017 C202.567,25.517 200.917,26.193 199.367,26.193 C195.691,26.193 193.140,23.642 193.140,20.191 C193.140,16.365 195.641,14.040 199.367,14.040 C200.942,14.040 202.717,14.790 203.493,16.340 L203.543,16.340 L203.543,14.340 L205.493,14.340 L205.493,25.517 C205.493,29.743 203.218,32.044 199.117,32.044 ZM199.367,15.840 C196.916,15.840 195.241,17.741 195.241,20.191 C195.241,22.567 197.091,24.392 199.367,24.392 C202.042,24.392 203.543,22.392 203.543,20.141 C203.543,17.616 201.842,15.840 199.367,15.840 ZM187.667,19.016 C187.667,17.066 186.817,15.840 184.992,15.840 C182.466,15.840 181.366,17.666 181.366,20.341 L181.366,26.043 L179.416,26.043 L179.416,17.116 C179.416,16.040 179.316,15.115 179.316,14.340 L181.166,14.340 C181.166,14.965 181.216,15.615 181.216,16.265 L181.266,16.265 C181.791,15.115 183.241,14.040 185.167,14.040 C188.242,14.040 189.618,15.990 189.618,18.816 L189.618,26.043 L187.667,26.043 L187.667,19.016 ZM174.066,11.189 C173.241,11.189 172.641,10.589 172.641,9.764 C172.641,8.989 173.266,8.339 174.066,8.339 C174.866,8.339 175.491,8.989 175.491,9.764 C175.491,10.589 174.891,11.189 174.066,11.189 ZM167.842,26.343 C165.066,26.343 164.616,24.842 164.616,22.417 L164.616,15.990 L162.066,15.990 L162.066,14.340 L164.616,14.340 L164.616,11.014 L166.567,11.014 L166.567,14.340 L170.017,14.340 L170.017,15.990 L166.567,15.990 L166.567,21.842 C166.567,23.342 166.592,24.542 168.317,24.542 C168.892,24.542 169.517,24.417 170.042,24.142 L170.117,25.918 C169.442,26.218 168.567,26.343 167.842,26.343 ZM160.393,22.667 C160.393,25.317 158.042,26.343 155.717,26.343 C153.742,26.343 152.316,25.817 151.166,24.167 L152.716,22.967 C153.491,23.917 154.342,24.542 155.717,24.542 C156.942,24.542 158.292,24.017 158.292,22.742 C158.292,21.492 157.042,21.166 155.792,20.891 C153.566,20.391 151.666,19.916 151.666,17.491 C151.666,15.215 153.867,14.040 156.042,14.040 C157.692,14.040 159.218,14.665 160.018,16.165 L158.393,17.241 C157.892,16.415 157.067,15.840 155.917,15.840 C154.842,15.840 153.616,16.365 153.616,17.466 C153.616,18.441 155.017,18.866 156.567,19.166 C158.643,19.566 160.393,20.316 160.393,22.667 ZM147.117,11.189 C146.292,11.189 145.691,10.589 145.691,9.764 C145.691,8.989 146.317,8.339 147.117,8.339 C147.917,8.339 148.542,8.989 148.542,9.764 C148.542,10.589 147.942,11.189 147.117,11.189 ZM133.317,8.339 L135.417,8.339 L135.417,24.092 L143.519,24.092 L143.519,26.043 L133.317,26.043 L133.317,8.339 ZM121.593,15.990 C119.217,15.990 118.167,17.666 118.167,20.341 L118.167,26.043 L116.217,26.043 L116.217,17.116 C116.217,16.040 116.117,15.115 116.117,14.340 L117.967,14.340 C117.967,14.965 118.017,15.615 118.017,16.265 L118.067,16.265 C118.592,15.115 120.043,14.040 121.968,14.040 C122.218,14.040 122.493,14.065 122.768,14.165 L122.643,16.140 C122.318,16.040 121.943,15.990 121.593,15.990 ZM106.443,26.343 C102.842,26.343 100.192,23.842 100.192,20.191 C100.192,16.540 102.842,14.040 106.443,14.040 C110.044,14.040 112.694,16.540 112.694,20.191 C112.694,23.842 110.044,26.343 106.443,26.343 ZM106.443,15.840 C103.918,15.840 102.292,17.741 102.292,20.191 C102.292,22.642 103.918,24.542 106.443,24.542 C108.969,24.542 110.594,22.642 110.594,20.191 C110.594,17.741 108.969,15.840 106.443,15.840 ZM95.793,26.343 C93.018,26.343 92.567,24.842 92.567,22.417 L92.567,15.990 L90.017,15.990 L90.017,14.340 L92.567,14.340 L92.567,11.014 L94.518,11.014 L94.518,14.340 L97.969,14.340 L97.969,15.990 L94.518,15.990 L94.518,21.842 C94.518,23.342 94.543,24.542 96.268,24.542 C96.843,24.542 97.468,24.417 97.994,24.142 L98.069,25.918 C97.393,26.218 96.518,26.343 95.793,26.343 ZM84.394,15.840 C81.768,15.840 80.443,17.791 80.443,20.191 C80.443,22.592 82.018,24.542 84.394,24.542 C85.669,24.542 86.644,24.092 87.369,23.092 L88.819,24.467 C87.694,25.767 86.094,26.343 84.394,26.343 C80.768,26.343 78.342,23.792 78.342,20.191 C78.342,16.641 80.793,14.040 84.394,14.040 C86.119,14.040 87.719,14.615 88.894,15.890 L87.344,17.266 C86.519,16.265 85.569,15.840 84.394,15.840 ZM69.244,26.343 C65.643,26.343 62.992,23.842 62.992,20.191 C62.992,16.540 65.643,14.040 69.244,14.040 C72.844,14.040 75.495,16.540 75.495,20.191 C75.495,23.842 72.844,26.343 69.244,26.343 ZM69.244,15.840 C66.718,15.840 65.093,17.741 65.093,20.191 C65.093,22.642 66.718,24.542 69.244,24.542 C71.769,24.542 73.395,22.642 73.395,20.191 C73.395,17.741 71.769,15.840 69.244,15.840 ZM51.469,26.043 L44.668,26.043 L44.668,8.339 L51.469,8.339 C54.945,8.339 60.146,10.664 60.146,17.191 C60.146,23.717 54.945,26.043 51.469,26.043 ZM50.769,10.289 L46.768,10.289 L46.768,24.092 L50.769,24.092 C54.820,24.092 57.895,22.042 57.895,17.191 C57.895,12.340 54.820,10.289 50.769,10.289 ZM148.092,26.043 L146.142,26.043 L146.142,14.340 L148.092,14.340 L148.092,26.043 ZM175.041,26.043 L173.091,26.043 L173.091,14.340 L175.041,14.340 L175.041,26.043 Z"/>
<path fill="url(#PSgrad_1)"
 d="M199.117,32.044 C196.841,32.044 195.016,31.444 193.365,29.818 L194.766,28.218 C195.991,29.543 197.316,30.243 199.117,30.243 C202.617,30.243 203.543,27.993 203.543,25.517 L203.543,24.017 L203.493,24.017 C202.567,25.517 200.917,26.193 199.367,26.193 C195.691,26.193 193.140,23.642 193.140,20.191 C193.140,16.365 195.641,14.040 199.367,14.040 C200.942,14.040 202.717,14.790 203.493,16.340 L203.543,16.340 L203.543,14.340 L205.493,14.340 L205.493,25.517 C205.493,29.743 203.218,32.044 199.117,32.044 ZM199.367,15.840 C196.916,15.840 195.241,17.741 195.241,20.191 C195.241,22.567 197.091,24.392 199.367,24.392 C202.042,24.392 203.543,22.392 203.543,20.141 C203.543,17.616 201.842,15.840 199.367,15.840 ZM187.667,19.016 C187.667,17.066 186.817,15.840 184.992,15.840 C182.466,15.840 181.366,17.666 181.366,20.341 L181.366,26.043 L179.416,26.043 L179.416,17.116 C179.416,16.040 179.316,15.115 179.316,14.340 L181.166,14.340 C181.166,14.965 181.216,15.615 181.216,16.265 L181.266,16.265 C181.791,15.115 183.241,14.040 185.167,14.040 C188.242,14.040 189.618,15.990 189.618,18.816 L189.618,26.043 L187.667,26.043 L187.667,19.016 ZM174.066,11.189 C173.241,11.189 172.641,10.589 172.641,9.764 C172.641,8.989 173.266,8.339 174.066,8.339 C174.866,8.339 175.491,8.989 175.491,9.764 C175.491,10.589 174.891,11.189 174.066,11.189 ZM167.842,26.343 C165.066,26.343 164.616,24.842 164.616,22.417 L164.616,15.990 L162.066,15.990 L162.066,14.340 L164.616,14.340 L164.616,11.014 L166.567,11.014 L166.567,14.340 L170.017,14.340 L170.017,15.990 L166.567,15.990 L166.567,21.842 C166.567,23.342 166.592,24.542 168.317,24.542 C168.892,24.542 169.517,24.417 170.042,24.142 L170.117,25.918 C169.442,26.218 168.567,26.343 167.842,26.343 ZM160.393,22.667 C160.393,25.317 158.042,26.343 155.717,26.343 C153.742,26.343 152.316,25.817 151.166,24.167 L152.716,22.967 C153.491,23.917 154.342,24.542 155.717,24.542 C156.942,24.542 158.292,24.017 158.292,22.742 C158.292,21.492 157.042,21.166 155.792,20.891 C153.566,20.391 151.666,19.916 151.666,17.491 C151.666,15.215 153.867,14.040 156.042,14.040 C157.692,14.040 159.218,14.665 160.018,16.165 L158.393,17.241 C157.892,16.415 157.067,15.840 155.917,15.840 C154.842,15.840 153.616,16.365 153.616,17.466 C153.616,18.441 155.017,18.866 156.567,19.166 C158.643,19.566 160.393,20.316 160.393,22.667 ZM147.117,11.189 C146.292,11.189 145.691,10.589 145.691,9.764 C145.691,8.989 146.317,8.339 147.117,8.339 C147.917,8.339 148.542,8.989 148.542,9.764 C148.542,10.589 147.942,11.189 147.117,11.189 ZM133.317,8.339 L135.417,8.339 L135.417,24.092 L143.519,24.092 L143.519,26.043 L133.317,26.043 L133.317,8.339 ZM121.593,15.990 C119.217,15.990 118.167,17.666 118.167,20.341 L118.167,26.043 L116.217,26.043 L116.217,17.116 C116.217,16.040 116.117,15.115 116.117,14.340 L117.967,14.340 C117.967,14.965 118.017,15.615 118.017,16.265 L118.067,16.265 C118.592,15.115 120.043,14.040 121.968,14.040 C122.218,14.040 122.493,14.065 122.768,14.165 L122.643,16.140 C122.318,16.040 121.943,15.990 121.593,15.990 ZM106.443,26.343 C102.842,26.343 100.192,23.842 100.192,20.191 C100.192,16.540 102.842,14.040 106.443,14.040 C110.044,14.040 112.694,16.540 112.694,20.191 C112.694,23.842 110.044,26.343 106.443,26.343 ZM106.443,15.840 C103.918,15.840 102.292,17.741 102.292,20.191 C102.292,22.642 103.918,24.542 106.443,24.542 C108.969,24.542 110.594,22.642 110.594,20.191 C110.594,17.741 108.969,15.840 106.443,15.840 ZM95.793,26.343 C93.018,26.343 92.567,24.842 92.567,22.417 L92.567,15.990 L90.017,15.990 L90.017,14.340 L92.567,14.340 L92.567,11.014 L94.518,11.014 L94.518,14.340 L97.969,14.340 L97.969,15.990 L94.518,15.990 L94.518,21.842 C94.518,23.342 94.543,24.542 96.268,24.542 C96.843,24.542 97.468,24.417 97.994,24.142 L98.069,25.918 C97.393,26.218 96.518,26.343 95.793,26.343 ZM84.394,15.840 C81.768,15.840 80.443,17.791 80.443,20.191 C80.443,22.592 82.018,24.542 84.394,24.542 C85.669,24.542 86.644,24.092 87.369,23.092 L88.819,24.467 C87.694,25.767 86.094,26.343 84.394,26.343 C80.768,26.343 78.342,23.792 78.342,20.191 C78.342,16.641 80.793,14.040 84.394,14.040 C86.119,14.040 87.719,14.615 88.894,15.890 L87.344,17.266 C86.519,16.265 85.569,15.840 84.394,15.840 ZM69.244,26.343 C65.643,26.343 62.992,23.842 62.992,20.191 C62.992,16.540 65.643,14.040 69.244,14.040 C72.844,14.040 75.495,16.540 75.495,20.191 C75.495,23.842 72.844,26.343 69.244,26.343 ZM69.244,15.840 C66.718,15.840 65.093,17.741 65.093,20.191 C65.093,22.642 66.718,24.542 69.244,24.542 C71.769,24.542 73.395,22.642 73.395,20.191 C73.395,17.741 71.769,15.840 69.244,15.840 ZM51.469,26.043 L44.668,26.043 L44.668,8.339 L51.469,8.339 C54.945,8.339 60.146,10.664 60.146,17.191 C60.146,23.717 54.945,26.043 51.469,26.043 ZM50.769,10.289 L46.768,10.289 L46.768,24.092 L50.769,24.092 C54.820,24.092 57.895,22.042 57.895,17.191 C57.895,12.340 54.820,10.289 50.769,10.289 ZM148.092,26.043 L146.142,26.043 L146.142,14.340 L148.092,14.340 L148.092,26.043 ZM175.041,26.043 L173.091,26.043 L173.091,14.340 L175.041,14.340 L175.041,26.043 Z"/>
</svg>