<svg 
 xmlns="http://www.w3.org/2000/svg"
 xmlns:xlink="http://www.w3.org/1999/xlink"
 width="29px" height="13px">
<path fill-rule="evenodd"  fill="#f2901c"
 d="M21.516,0.291 C21.607,0.111 21.795,-0.003 22.001,-0.003 C22.207,-0.003 22.396,0.111 22.487,0.291 L24.230,3.726 C24.308,3.882 24.461,3.990 24.638,4.014 L28.535,4.565 C28.739,4.594 28.908,4.733 28.972,4.924 C29.036,5.115 28.983,5.324 28.835,5.464 L26.016,8.138 C25.888,8.259 25.830,8.434 25.859,8.605 L26.525,12.381 C26.560,12.579 26.476,12.779 26.309,12.896 C26.142,13.014 25.921,13.030 25.739,12.937 L22.253,11.154 C22.095,11.073 21.907,11.073 21.749,11.154 L18.263,12.936 C18.081,13.030 17.859,13.014 17.693,12.896 C17.526,12.779 17.442,12.579 17.477,12.381 L18.142,8.605 C18.173,8.434 18.114,8.259 17.986,8.138 L15.167,5.464 C15.019,5.324 14.966,5.115 15.030,4.924 C15.093,4.733 15.263,4.594 15.467,4.565 L19.364,4.014 C19.541,3.990 19.693,3.882 19.772,3.726 L21.516,0.291 Z"/>
<path fill-rule="evenodd"  fill="#cacaca"
 d="M6.516,0.291 C6.607,0.111 6.795,-0.003 7.001,-0.003 C7.207,-0.003 7.396,0.111 7.487,0.291 L9.230,3.726 C9.308,3.882 9.461,3.990 9.638,4.014 L13.535,4.565 C13.739,4.594 13.908,4.733 13.972,4.924 C14.036,5.115 13.983,5.324 13.835,5.464 L11.016,8.138 C10.888,8.259 10.830,8.434 10.859,8.605 L11.525,12.381 C11.560,12.579 11.476,12.779 11.309,12.896 C11.142,13.014 10.921,13.030 10.739,12.937 L7.253,11.154 C7.095,11.073 6.907,11.073 6.749,11.154 L3.263,12.936 C3.081,13.030 2.859,13.014 2.693,12.896 C2.526,12.779 2.442,12.579 2.477,12.381 L3.142,8.605 C3.173,8.434 3.114,8.259 2.986,8.138 L0.167,5.464 C0.019,5.324 -0.034,5.115 0.030,4.924 C0.093,4.733 0.263,4.594 0.467,4.565 L4.364,4.014 C4.541,3.990 4.693,3.882 4.772,3.726 L6.516,0.291 Z"/>
</svg>