<svg 
 xmlns="http://www.w3.org/2000/svg"
 xmlns:xlink="http://www.w3.org/1999/xlink"
 width="80px" height="20px">
<path fill-rule="evenodd"  fill="rgb(155, 155, 155)"
 d="M19.599,5.058 C16.393,8.265 13.187,11.475 9.981,14.690 C9.789,14.882 9.565,15.000 9.300,15.058 C8.158,15.294 7.011,15.540 5.869,15.781 L5.152,15.932 C5.082,15.944 5.013,15.952 4.943,15.952 C4.699,15.952 4.466,15.858 4.299,15.691 C4.083,15.474 3.997,15.156 4.062,14.837 L4.201,14.183 C4.450,13.003 4.699,11.823 4.956,10.642 C5.005,10.417 5.131,10.189 5.298,10.017 C6.008,9.294 6.726,8.579 7.440,7.864 L9.377,5.924 C11.221,4.078 13.068,2.228 14.904,0.381 C15.193,0.087 15.528,-0.035 15.895,0.010 L15.964,0.018 C16.217,0.051 16.507,0.087 16.780,0.198 C18.142,0.749 19.138,1.729 19.737,3.102 C19.835,3.331 19.884,3.567 19.929,3.776 C19.949,3.857 19.966,3.943 19.986,4.025 C19.998,4.078 20.002,4.135 19.998,4.192 C19.966,4.540 19.835,4.821 19.599,5.058 ZM18.962,3.968 C18.926,3.792 18.889,3.625 18.832,3.494 C18.338,2.367 17.522,1.566 16.413,1.117 C16.258,1.051 16.062,1.027 15.850,1.002 L15.781,0.994 C15.773,0.994 15.769,0.994 15.760,0.994 C15.732,0.994 15.695,1.006 15.618,1.072 C13.774,2.926 11.926,4.776 10.079,6.627 L8.141,8.567 C7.427,9.278 6.718,9.993 6.008,10.712 C5.971,10.752 5.939,10.810 5.931,10.846 C5.678,12.023 5.429,13.203 5.180,14.380 L5.066,14.915 L5.670,14.788 C6.816,14.547 7.958,14.306 9.104,14.065 C9.177,14.049 9.226,14.024 9.279,13.971 C12.485,10.761 15.691,7.546 18.901,4.339 C18.958,4.286 18.987,4.237 19.003,4.164 C18.991,4.098 18.975,4.033 18.962,3.968 ZM8.708,4.454 L1.587,4.454 C1.264,4.454 0.999,4.719 0.999,5.042 L0.999,18.411 C0.999,18.734 1.264,18.999 1.587,18.999 L14.932,18.999 C15.255,18.999 15.520,18.734 15.520,18.411 L15.520,11.569 C15.520,11.292 15.744,11.067 16.021,11.067 C16.299,11.067 16.523,11.292 16.523,11.569 L16.523,18.411 C16.523,19.285 15.813,20.000 14.937,20.000 L1.587,20.000 C0.714,20.000 -0.000,19.289 -0.000,18.411 L-0.000,5.038 C-0.000,4.164 0.710,3.449 1.587,3.449 L8.708,3.449 C8.986,3.449 9.210,3.674 9.210,3.951 C9.210,4.229 8.986,4.454 8.708,4.454 Z"/>
<path fill-rule="evenodd"  fill="rgb(17, 208, 211)"
 d="M39.599,5.058 C36.393,8.265 33.187,11.475 29.981,14.690 C29.789,14.882 29.565,15.000 29.300,15.058 C28.158,15.294 27.011,15.540 25.869,15.781 L25.152,15.932 C25.082,15.944 25.013,15.952 24.943,15.952 C24.699,15.952 24.466,15.858 24.299,15.691 C24.083,15.474 23.997,15.156 24.062,14.837 L24.201,14.183 C24.450,13.003 24.699,11.823 24.956,10.642 C25.005,10.417 25.131,10.189 25.298,10.017 C26.008,9.294 26.726,8.579 27.440,7.864 L29.377,5.924 C31.221,4.078 33.068,2.228 34.904,0.381 C35.193,0.087 35.528,-0.035 35.895,0.010 L35.964,0.018 C36.217,0.051 36.507,0.087 36.780,0.198 C38.142,0.749 39.138,1.729 39.737,3.102 C39.835,3.331 39.884,3.567 39.929,3.776 C39.949,3.857 39.966,3.943 39.986,4.025 C39.998,4.078 40.002,4.135 39.998,4.192 C39.966,4.540 39.835,4.821 39.599,5.058 ZM38.962,3.968 C38.926,3.792 38.889,3.625 38.832,3.494 C38.338,2.367 37.522,1.566 36.413,1.117 C36.258,1.051 36.062,1.027 35.850,1.002 L35.781,0.994 C35.773,0.994 35.769,0.994 35.760,0.994 C35.732,0.994 35.695,1.006 35.618,1.072 C33.774,2.926 31.926,4.776 30.079,6.627 L28.141,8.567 C27.427,9.278 26.718,9.993 26.008,10.712 C25.971,10.752 25.939,10.810 25.931,10.846 C25.678,12.023 25.429,13.203 25.180,14.380 L25.066,14.915 L25.670,14.788 C26.816,14.547 27.958,14.306 29.104,14.065 C29.177,14.049 29.226,14.024 29.279,13.971 C32.485,10.761 35.691,7.546 38.901,4.339 C38.958,4.286 38.987,4.237 39.003,4.164 C38.991,4.098 38.975,4.033 38.962,3.968 ZM28.708,4.454 L21.587,4.454 C21.264,4.454 20.999,4.719 20.999,5.042 L20.999,18.411 C20.999,18.734 21.264,18.999 21.587,18.999 L34.932,18.999 C35.255,18.999 35.520,18.734 35.520,18.411 L35.520,11.569 C35.520,11.292 35.744,11.067 36.021,11.067 C36.299,11.067 36.523,11.292 36.523,11.569 L36.523,18.411 C36.523,19.285 35.813,20.000 34.937,20.000 L21.587,20.000 C20.714,20.000 20.000,19.289 20.000,18.411 L20.000,5.038 C20.000,4.164 20.710,3.449 21.587,3.449 L28.708,3.449 C28.986,3.449 29.210,3.674 29.210,3.951 C29.210,4.229 28.986,4.454 28.708,4.454 Z"/>
<path fill-rule="evenodd"  fill="rgb(155, 155, 155)"
 d="M59.497,20.000 L50.339,20.000 C50.061,20.000 49.836,19.775 49.836,19.497 C49.836,19.219 50.061,18.994 50.339,18.994 L59.002,18.994 L59.002,1.001 L41.006,1.001 L41.006,9.606 C41.006,9.879 40.777,10.104 40.503,10.104 C40.229,10.104 40.004,9.884 40.004,9.606 L40.004,0.499 C40.004,0.225 40.225,0.000 40.503,0.000 L59.497,0.000 C59.775,0.000 60.000,0.225 60.000,0.503 L60.000,19.497 C60.000,19.775 59.775,20.000 59.497,20.000 ZM40.004,12.532 C40.004,12.254 40.225,12.029 40.503,12.029 L47.465,12.029 C47.743,12.029 47.968,12.254 47.968,12.532 L47.968,19.493 C47.968,19.771 47.743,19.996 47.465,19.996 L40.499,19.996 C40.225,19.996 40.000,19.771 40.000,19.493 L40.004,19.493 L40.004,12.532 ZM41.002,18.994 L46.966,18.994 L46.966,13.031 L41.002,13.031 L41.002,18.994 ZM54.783,4.513 L51.517,4.513 C51.239,4.513 51.014,4.288 51.014,4.010 C51.014,3.732 51.239,3.507 51.517,3.507 L55.993,3.507 C56.271,3.507 56.496,3.732 56.496,4.010 L56.496,8.482 C56.496,8.759 56.271,8.984 55.993,8.984 C55.715,8.984 55.491,8.759 55.491,8.482 L55.491,5.216 L49.824,10.885 C49.726,10.983 49.599,11.032 49.469,11.032 C49.338,11.032 49.211,10.983 49.113,10.885 C48.917,10.689 48.917,10.374 49.113,10.178 L54.783,4.513 Z"/>
<path fill-rule="evenodd"  fill="rgb(17, 208, 211)"
 d="M79.497,20.000 L70.339,20.000 C70.061,20.000 69.836,19.775 69.836,19.497 C69.836,19.219 70.061,18.994 70.339,18.994 L79.002,18.994 L79.002,1.001 L61.006,1.001 L61.006,9.606 C61.006,9.879 60.777,10.104 60.503,10.104 C60.229,10.104 60.004,9.884 60.004,9.606 L60.004,0.499 C60.004,0.225 60.225,0.000 60.503,0.000 L79.497,0.000 C79.775,0.000 80.000,0.225 80.000,0.503 L80.000,19.497 C80.000,19.775 79.775,20.000 79.497,20.000 ZM60.004,12.532 C60.004,12.254 60.225,12.029 60.503,12.029 L67.465,12.029 C67.743,12.029 67.968,12.254 67.968,12.532 L67.968,19.493 C67.968,19.771 67.743,19.996 67.465,19.996 L60.499,19.996 C60.225,19.996 60.000,19.771 60.000,19.493 L60.004,19.493 L60.004,12.532 ZM61.002,18.994 L66.966,18.994 L66.966,13.031 L61.002,13.031 L61.002,18.994 ZM74.783,4.513 L71.517,4.513 C71.239,4.513 71.014,4.288 71.014,4.010 C71.014,3.732 71.239,3.507 71.517,3.507 L75.993,3.507 C76.271,3.507 76.496,3.732 76.496,4.010 L76.496,8.482 C76.496,8.759 76.271,8.984 75.993,8.984 C75.715,8.984 75.491,8.759 75.491,8.482 L75.491,5.216 L69.824,10.885 C69.726,10.983 69.599,11.032 69.469,11.032 C69.338,11.032 69.211,10.983 69.113,10.885 C68.917,10.689 68.917,10.374 69.113,10.178 L74.783,4.513 Z"/>
</svg>